<mxfile host="app.diagrams.net" modified="2023-08-08T20:19:00.824Z" agent="Mozilla/5.0 (X11; Linux x86_64; rv:109.0) Gecko/20100101 Firefox/115.0" version="21.6.7" etag="zrHh_AZ7dkII4yZqcwn6" type="github">
  <diagram name="Page-1" id="3PqcYf85709wN5GMVyz1">
    <mxGraphModel>
      <root>
        <mxCell id="0" />
        <mxCell id="1" parent="0" />
      </root>
    </mxGraphModel>
  </diagram>
</mxfile>
